<svg id="logo-hammers" data-name="Layer 1" xmlns="http://www.w3.org/2000/svg" viewBox="0 0 62.32 51.19"><defs><style>.f-h-1{fill:#fff;}</style></defs><title>forge-hammers-logo</title><polygon class="f-h-1" points="21.66 16.41 28.32 6.92 21.37 0.03 11.87 6.7 10.36 5.2 5.17 10.39 6.67 11.9 0 21.4 6.99 28.25 16.36 21.71 21.66 16.41"/><polygon class="f-h-1" points="55.65 11.87 57.22 10.3 52.02 5.1 50.45 6.67 40.95 0 34.1 6.99 40.64 16.36 45.94 21.66 55.43 28.32 62.32 21.37 55.65 11.87"/><polygon class="f-h-1" points="44.28 23.24 39.09 18.04 31.15 25.98 23.24 18.07 18.04 23.27 45.97 51.19 51.16 46 36.34 31.18 44.28 23.24"/><rect class="f-h-1" x="204.37" y="269.12" width="18.71" height="7.35" transform="translate(-323.65 0.19) rotate(-45)"/></svg>