<svg id="logo-forge" data-name="Layer 1" xmlns="http://www.w3.org/2000/svg" viewBox="0 0 186.2 54.48"><defs><style>.cls-1{fill:#fff;}</style></defs><title>forge-logo</title><polygon class="cls-1" points="4.69 18.34 0 18.36 0.04 27.27 4.69 27.25 4.69 44.24 14.42 44.24 14.42 27.2 35.55 27.11 35.51 18.2 14.42 18.3 14.42 18.27 14.42 8.85 38.38 8.85 38.38 0 4.69 0 4.69 18.34"/><path class="cls-1" d="M192.53,238.43c-10.56,0-18.4,7.9-18.4,17.64v.12c0,9.74,7.78,17.51,18.27,17.51s18.39-7.9,18.39-17.63v-.13C210.79,246.21,203,238.43,192.53,238.43Zm8.78,17.76c0,5-3.28,9.23-8.78,9.23-5.31,0-8.91-4.36-8.91-9.35v-.13c0-5,3.28-9.23,8.78-9.23,5.31,0,8.91,4.36,8.91,9.36Z" transform="translate(-131.59 -228.7)"/><path class="cls-1" d="M227.35,245.89v-6.82h-9.61v33.87h9.61V260.43c0-8.09,3.92-12,10.3-12h.51v-10C232.47,238.18,229.31,241.21,227.35,245.89Z" transform="translate(-131.59 -228.7)"/><path class="cls-1" d="M268,243.49c-2.59-2.84-5.69-5.06-10.94-5.06-7.77,0-15,5.69-15,15.8v.13c0,10.05,7.14,15.8,15,15.8,5.12,0,8.22-2.08,11.06-5.5v1.65c0,6.06-3.09,9.22-9.67,9.22A22.13,22.13,0,0,1,247,272.44l-3.28,7.2a32.09,32.09,0,0,0,15,3.54c6.57,0,11.44-1.39,14.6-4.55,2.84-2.84,4.29-7.27,4.29-13.34V239.07H268Zm.12,10.87c0,4.61-3.6,7.84-8.28,7.84s-8.21-3.16-8.21-7.84v-.13c0-4.61,3.54-7.83,8.21-7.83s8.28,3.22,8.28,7.83Z" transform="translate(-131.59 -228.7)"/><path class="cls-1" d="M317.79,256.83c0-9.61-5.18-18.4-16.5-18.4-9.86,0-16.75,8-16.75,17.64v.12c0,10.37,7.53,17.51,17.7,17.51a16.94,16.94,0,0,0,13.84-6.32l-5.5-4.87c-2.65,2.47-5,3.48-8.21,3.48-4.3,0-7.33-2.28-8.28-6.64h23.57C317.73,258.47,317.79,257.58,317.79,256.83ZM294,253.35c.76-4.36,3.35-7.21,7.33-7.21s6.58,2.91,7.14,7.21Z" transform="translate(-131.59 -228.7)"/></svg>