<?xml version="1.0" standalone="no"?>
<!DOCTYPE svg PUBLIC "-//W3C//DTD SVG 20010904//EN"
 "http://www.w3.org/TR/2001/REC-SVG-20010904/DTD/svg10.dtd">
<svg version="1.0" xmlns="http://www.w3.org/2000/svg"
 width="310.000000pt" height="310.000000pt" viewBox="0 0 310.000000 310.000000"
 preserveAspectRatio="xMidYMid meet">
<metadata>
Created by potrace 1.11, written by Peter Selinger 2001-2013
</metadata>
<g transform="translate(0.000000,310.000000) scale(0.100000,-0.100000)"
fill="#000000" stroke="none">
<path d="M890 2693 c-96 -68 -201 -141 -234 -164 l-59 -40 -37 36 -38 37 -113
-114 c-156 -155 -147 -140 -105 -183 l36 -36 -58 -82 c-84 -121 -185 -264
-233 -330 l-42 -58 119 -115 c66 -64 144 -140 175 -171 l56 -55 234 163 c207
145 250 179 367 299 111 113 160 173 293 362 87 125 159 231 159 234 0 6 -285
290 -326 325 -18 15 -29 9 -194 -108z"/>
<path d="M1962 2742 c-40 -43 -116 -120 -168 -172 l-94 -96 159 -228 c139
-201 177 -247 302 -373 79 -80 152 -149 162 -154 10 -6 73 -49 140 -97 67 -48
149 -106 182 -129 33 -24 73 -50 89 -59 l30 -16 168 171 169 172 -51 72 c-28
40 -103 145 -166 235 l-115 163 39 38 39 38 -128 130 -128 130 -39 -39 -38
-39 -50 34 c-129 89 -372 260 -394 278 -13 10 -27 19 -30 18 -3 0 -38 -35 -78
-77z"/>
<path d="M1033 1796 c-68 -68 -123 -127 -123 -130 0 -4 310 -317 689 -697
l689 -689 126 125 c69 69 126 129 126 133 0 4 -162 169 -360 367 -198 198
-360 363 -360 368 0 4 87 95 194 201 l193 194 -128 128 -129 128 -30 -29 c-17
-17 -106 -105 -198 -197 l-167 -168 -195 195 c-107 107 -197 195 -200 195 -3
0 -60 -56 -127 -124z"/>
<path d="M889 864 l-326 -326 125 -124 c68 -68 128 -124 133 -124 5 0 155 146
333 324 l324 324 -127 126 c-69 69 -129 126 -132 126 -2 0 -151 -147 -330
-326z"/>
</g>
</svg>
